<?xml version="1.0" encoding="UTF-8" standalone="no"?>
<!-- Generator: Adobe Illustrator 21.0.0, SVG Export Plug-In . SVG Version: 6.00 Build 0)  -->

<svg
   xmlns:dc="http://purl.org/dc/elements/1.1/"
   xmlns:cc="http://creativecommons.org/ns#"
   xmlns:rdf="http://www.w3.org/1999/02/22-rdf-syntax-ns#"
   xmlns:svg="http://www.w3.org/2000/svg"
   xmlns="http://www.w3.org/2000/svg"
   xmlns:sodipodi="http://sodipodi.sourceforge.net/DTD/sodipodi-0.dtd"
   xmlns:inkscape="http://www.inkscape.org/namespaces/inkscape"
   version="1.1"
   id="Layer_1"
   x="0px"
   y="0px"
   viewBox="0 0 34 34"
   style="enable-background:new 0 0 34 34;"
   xml:space="preserve"
   sodipodi:docname="koompi-logo-w-02.svg"
   inkscape:version="0.92.4 5da689c313, 2019-01-14"><metadata
   id="metadata21"><rdf:RDF><cc:Work
       rdf:about=""><dc:format>image/svg+xml</dc:format><dc:type
         rdf:resource="http://purl.org/dc/dcmitype/StillImage" /></cc:Work></rdf:RDF></metadata><defs
   id="defs19" /><sodipodi:namedview
   pagecolor="#ffffff"
   bordercolor="#666666"
   borderopacity="1"
   objecttolerance="10"
   gridtolerance="10"
   guidetolerance="10"
   inkscape:pageopacity="0"
   inkscape:pageshadow="2"
   inkscape:window-width="3840"
   inkscape:window-height="2006"
   id="namedview17"
   showgrid="false"
   inkscape:zoom="6.9411765"
   inkscape:cx="17"
   inkscape:cy="17"
   inkscape:window-x="0"
   inkscape:window-y="40"
   inkscape:window-maximized="1"
   inkscape:current-layer="Layer_1" />
<style
   type="text/css"
   id="style2">
	.st0{fill:#FFFFFF;}
</style>
<g
   id="g14"
   transform="matrix(0.78813559,0,0,0.81355932,3.6016949,3.1694915)">
	<g
   id="g12">
		<path
   class="st0"
   d="m 18,0 v 11.2 c 0,2.6 2.1,4.8 4.8,4.8 H 34 C 26.4,13.6 20.4,7.6 18,0 Z"
   id="path4"
   inkscape:connector-curvature="0"
   style="fill:#FFFFFF" />
		<path
   class="st0"
   d="M 18,34 V 22.5 C 18,20 20,18 22.5,18 H 34 c -7.6,2.4 -13.6,8.4 -16,16 z"
   id="path6"
   inkscape:connector-curvature="0"
   style="fill:#FFFFFF" />
		<path
   class="st0"
   d="M 16,0 V 11.5 C 16,14 14,16 11.5,16 H 0 C 7.6,13.6 13.6,7.6 16,0 Z"
   id="path8"
   inkscape:connector-curvature="0"
   style="fill:#FFFFFF" />
		<path
   class="st0"
   d="M 16,34 V 22.5 C 16,20 14,18 11.5,18 H 0 c 7.6,2.4 13.6,8.4 16,16 z"
   id="path10"
   inkscape:connector-curvature="0"
   style="fill:#FFFFFF" />
	</g>
</g>
</svg>
