<?xml version="1.0" encoding="UTF-8" standalone="no"?>
<svg
   width="100%"
   height="100%"
   viewBox="0 0 330 307"
   version="1.1"
   xml:space="preserve"
   style="fill-rule:evenodd;clip-rule:evenodd;stroke-linecap:round;stroke-miterlimit:1;"
   id="svg69"
   sodipodi:docname="org.koompios.FirstSetup.svg"
   inkscape:version="1.2.2 (b0a8486, 2022-12-01)"
   xmlns:inkscape="http://www.inkscape.org/namespaces/inkscape"
   xmlns:sodipodi="http://sodipodi.sourceforge.net/DTD/sodipodi-0.dtd"
   xmlns="http://www.w3.org/2000/svg"
   xmlns:svg="http://www.w3.org/2000/svg"><defs
   id="defs73" /><sodipodi:namedview
   id="namedview71"
   pagecolor="#ffffff"
   bordercolor="#000000"
   borderopacity="0.25"
   inkscape:showpageshadow="2"
   inkscape:pageopacity="0.0"
   inkscape:pagecheckerboard="0"
   inkscape:deskcolor="#d1d1d1"
   showgrid="false"
   inkscape:zoom="1.6205212"
   inkscape:cx="161.05929"
   inkscape:cy="105.83015"
   inkscape:window-width="1920"
   inkscape:window-height="1043"
   inkscape:window-x="0"
   inkscape:window-y="0"
   inkscape:window-maximized="1"
   inkscape:current-layer="svg69" />
    
<style
   id="style2"
   type="text/css">
	.st0{fill:#FFFFFF;}
</style><g
   id="g14"
   transform="matrix(8.1483079,0,0,7.7461106,28.387116,13.890431)">
	<g
   id="g12">
		<path
   style="fill:#000000"
   inkscape:connector-curvature="0"
   id="path4-3"
   d="m 18,0 v 11.2 c 0,2.6 2.1,4.8 4.8,4.8 H 34 C 26.4,13.6 20.4,7.6 18,0 Z"
   class="st0" />
		<path
   style="fill:#000000"
   inkscape:connector-curvature="0"
   id="path6"
   d="M 18,34 V 22.5 C 18,20 20,18 22.5,18 H 34 c -7.6,2.4 -13.6,8.4 -16,16 z"
   class="st0" />
		<path
   style="fill:#000000"
   inkscape:connector-curvature="0"
   id="path8"
   d="M 16,0 V 11.5 C 16,14 14,16 11.5,16 H 0 C 7.6,13.6 13.6,7.6 16,0 Z"
   class="st0" />
		<path
   style="fill:#000000"
   inkscape:connector-curvature="0"
   id="path10"
   d="M 16,34 V 22.5 C 16,20 14,18 11.5,18 H 0 c 7.6,2.4 13.6,8.4 16,16 z"
   class="st0" />
	</g>
</g><path
   style="fill:#000080;stroke-width:0.617085"
   d="M 38.259296,134.88935 C 48.584654,131.18236 52.26561,129.57274 63.556798,123.82718 105.6787,102.3933 139.33338,65.530139 156.05025,22.515842 l 2.15537,-5.545993 0.0311,45.355778 c 0.026,37.901193 -0.11717,45.912843 -0.87084,48.745083 -2.54638,9.56902 -9.26099,17.71168 -18.26593,22.15071 -8.99675,4.43498 -8.07982,4.36968 -61.038615,4.34683 l -47.207034,-0.0204 7.405025,-2.65853 z"
   id="path491" /><path
   style="fill:#000080;stroke-width:0.617085"
   d="m 208.57487,137.17959 c -5.9771,-0.79275 -13.96048,-4.24723 -18.93862,-8.19492 -6.50806,-5.16091 -11.87803,-13.52569 -13.39852,-20.87082 -0.45468,-2.19642 -0.6744,-17.695792 -0.66924,-47.207039 l 0.008,-43.936962 3.11031,7.713568 c 20.50681,50.856833 63.1047,91.020733 116.89742,110.218053 l 7.40503,2.64267 -46.28141,-0.0595 c -25.45477,-0.0327 -47.11447,-0.17 -48.13266,-0.30505 z"
   id="path493" /><path
   style="fill:#000080;stroke-width:0.617085"
   d="m 175.57915,228.91407 c -0.0202,-49.97843 -0.0946,-48.88578 3.83893,-56.38843 2.84015,-5.4172 9.54441,-11.88762 15.27237,-14.73965 8.31405,-4.13969 7.8983,-4.11151 60.47437,-4.09958 l 47.20703,0.0107 -8.02211,2.97591 c -16.67159,6.18454 -29.46881,12.64949 -43.50452,21.97779 -32.69015,21.72625 -58.5667,53.3612 -72.46557,88.59156 l -2.78215,7.05209 z"
   id="path495" /><path
   style="fill:#000080;stroke-width:0.617085"
   d="m 155.84658,268.22476 c -3.41081,-9.06685 -11.85876,-25.34014 -17.83179,-34.34939 -7.70468,-11.62113 -14.95894,-20.47091 -25.06096,-30.57293 C 91.982807,182.33142 68.444305,167.38853 39.493467,156.66778 l -8.022111,-2.97066 47.207035,-0.0107 c 52.606139,-0.0119 52.183589,-0.0407 60.474369,4.11495 5.69049,2.85228 12.40694,9.32604 15.2241,14.67401 3.99666,7.58707 3.9302,6.58956 3.7553,56.36051 l -0.15829,45.0438 z"
   id="path497" /><path
   style="fill:#e3dbdb;stroke-width:0.617085"
   d=""
   id="path712" /><path
   style="fill:#e3dbdb;stroke-width:0.617085"
   d="m 204.58297,136.00479 c -10.89877,-2.92894 -20.36992,-10.71758 -25.37964,-20.87108 l -2.7169,-5.50648 -0.46439,-26.890503 C 175.76663,67.946955 175.62779,47.411803 175.7135,37.103058 l 0.15584,-18.743172 2.69008,6.710006 c 4.9433,12.330365 13.3748,27.602117 21.48455,38.914397 9.28383,12.94999 24.03108,28.43979 36.60829,38.451591 15.39435,12.25431 37.81284,24.96926 55.53768,31.49894 3.90307,1.43785 7.21219,2.71415 7.35361,2.83621 0.14141,0.12206 -20.40753,0.20365 -45.66432,0.18132 -38.36285,-0.0339 -46.47693,-0.18989 -49.29626,-0.94756 z"
   id="path714" /><path
   style="fill:#e3dbdb;stroke-width:0.617085"
   d="m 176.01857,259.79124 c -0.37313,-21.07423 0.22484,-75.45209 0.87196,-79.29376 1.9831,-11.77275 15.34704,-23.97029 28.08934,-25.63771 3.0263,-0.39601 21.53148,-0.56621 49.56786,-0.4559 l 44.7387,0.17603 -6.4794,2.40159 c -27.10134,10.04512 -50.00246,24.60673 -70.87846,45.06789 -18.77476,18.40167 -33.69739,40.33206 -43.03745,63.24809 l -2.65953,6.52521 z"
   id="path716" /><path
   style="fill:#e3dbdb;stroke-width:0.617085"
   d="m 155.52789,266.66935 c -1.00589,-2.59413 -3.96911,-8.93251 -6.58495,-14.08529 C 138.47416,231.96217 127.51435,217.13528 110.66266,200.79691 90.627831,181.37237 67.358253,166.72837 41.03618,156.97963 l -6.479397,-2.39973 44.738693,-0.17603 c 28.036384,-0.11031 46.541574,0.0599 49.567864,0.4559 12.84245,1.68052 25.96119,13.75914 28.18893,25.95397 0.38943,2.13174 0.56226,19.67317 0.46297,46.98693 l -0.15846,43.58526 z"
   id="path718" /><path
   style="fill:#0066ff;stroke-width:0.617085"
   d="m 36.40804,135.97332 c 1.357588,-0.54076 5.661758,-2.23448 9.564824,-3.76384 C 94.368989,113.24625 134.92856,73.85707 154.61951,26.697944 l 3.03126,-7.259753 -0.147,46.020123 -0.14699,46.020126 -2.60009,5.19797 c -1.43006,2.85887 -3.72881,6.50086 -5.10834,8.09328 -3.27726,3.78301 -10.08626,8.26747 -15.63211,10.29543 l -4.4283,1.6193 -47.824122,0.13604 c -44.294075,0.12601 -47.641924,0.0635 -45.355778,-0.84714 z"
   id="path720" /><path
   style="fill:#0066ff;stroke-width:0.617085"
   d="m 204.0231,135.40234 c -9.92043,-2.6682 -19.22777,-10.52384 -24.4213,-20.61222 l -3.01165,-5.85007 -0.28054,-44.133844 c -0.1543,-24.273615 -0.13899,-43.995 0.034,-43.825302 0.17302,0.169699 1.33968,2.807739 2.59259,5.862312 5.05285,12.318759 14.25245,28.435056 22.54217,39.490427 10.34587,13.797512 24.91405,28.741935 36.90233,37.855387 15.6912,11.92839 36.91531,23.79145 54.17952,30.28323 l 4.87493,1.8331 -45.04723,-0.006 c -37.34092,-0.004 -45.61479,-0.158 -48.36484,-0.89766 z"
   id="path791" /><path
   style="fill:#0066ff;stroke-width:0.617085"
   d="m 176.22694,240.2005 c 0.027,-15.86681 0.24775,-36.10835 0.4906,-44.9812 l 0.44155,-16.13245 2.33869,-4.73202 c 3.82442,-7.73818 11.02523,-14.16027 19.82081,-17.67734 l 3.70251,-1.48051 46.89849,-0.13449 46.8985,-0.13449 -7.40503,2.97828 c -27.2782,10.9712 -48.42907,24.80125 -68.52408,44.80628 -11.58469,11.53281 -21.69087,24.2747 -29.55454,37.26242 -4.09416,6.76197 -10.63004,19.69192 -12.74701,25.21748 -0.8127,2.12123 -1.68731,3.85678 -1.94359,3.85678 -0.25627,0 -0.44388,-12.98193 -0.4169,-28.84874 z"
   id="path793" /><path
   style="fill:#2a7fff;stroke-width:0.617085"
   d="m 156.56945,268.56535 c -0.28376,-1.62586 -7.11041,-15.9818 -10.74391,-22.59365 C 135.46791,227.124 122.41107,210.73911 106.0224,196.02316 87.755533,179.62071 67.531026,167.04843 45.047235,158.1188 l -8.02211,-3.18604 46.898492,0.13211 c 43.960913,0.12384 47.091753,0.20379 49.983923,1.27637 8.56799,3.17753 16.62772,10.30489 20.49146,18.12098 l 2.3407,4.73508 0.17176,34.58979 c 0.1573,31.67792 6.1e-4,56.74248 -0.34201,54.77826 z"
   id="path795" /><path
   style="fill:#2a7fff;stroke-width:0.617085"
   d="m 176.98411,224.00201 0.18121,-44.12161 2.04255,-4.01106 c 4.43152,-8.7024 11.0103,-14.91367 19.60501,-18.50983 l 4.43097,-1.85398 45.55294,0.0272 45.55295,0.0272 -6.78794,2.75139 c -10.09229,4.09076 -24.32047,11.36267 -32.82737,16.77779 -12.11525,7.71204 -21.90256,15.67421 -33.55413,27.29693 -20.7318,20.68045 -29.79259,34.00028 -43.66844,64.19485 -0.53972,1.17445 -0.6657,-8.98958 -0.52775,-42.57889 z"
   id="path866" /><path
   style="fill:#2a7fff;stroke-width:0.617085"
   d="m 203.39421,134.78224 c -9.4371,-2.53778 -18.0269,-10.1178 -24.06782,-21.23852 l -2.51406,-4.62814 0.0413,-42.88744 0.0413,-42.887437 1.29139,3.085427 c 4.59197,10.971354 14.31853,28.164009 21.95702,38.811225 8.7363,12.177436 27.26149,31.303637 38.48172,39.730175 12.92305,9.70538 32.08344,20.84738 45.85139,26.66314 4.07276,1.72038 7.9604,3.37921 8.63919,3.68628 0.75022,0.33938 -15.94604,0.55876 -42.57889,0.55947 -36.34741,0.001 -44.38039,-0.15141 -47.14247,-0.89418 z"
   id="path868" /><path
   style="fill:#2a7fff;stroke-width:0.617085"
   d="m 37.385091,136.13514 c 0.141416,-0.1324 4.144758,-1.81645 8.896315,-3.74231 C 94.864444,112.70149 133.73576,75.344911 153.99963,28.872173 l 3.03729,-6.965641 0.006,44.640671 0.006,44.640677 -2.78975,5.40148 c -1.53437,2.97082 -3.74709,6.51991 -4.91717,7.88688 -2.88113,3.36594 -9.53578,7.81507 -15.03877,10.05453 l -4.53373,1.84511 H 83.448288 c -25.476173,0 -46.204612,-0.10833 -46.063197,-0.24074 z"
   id="path870" /></svg>
