<?xml version="1.0" encoding="UTF-8" standalone="no"?>
<svg
   enable-background="new 0 0 34 34"
   viewBox="0 0 26.79661 27.661016"
   version="1.1"
   id="svg4"
   sodipodi:docname="koompi-blue.svg"
   width="26.79661"
   height="27.661016"
   inkscape:version="1.3.2 (091e20ef0f, 2023-11-25, custom)"
   xmlns:inkscape="http://www.inkscape.org/namespaces/inkscape"
   xmlns:sodipodi="http://sodipodi.sourceforge.net/DTD/sodipodi-0.dtd"
   xmlns="http://www.w3.org/2000/svg"
   xmlns:svg="http://www.w3.org/2000/svg">
  <defs
     id="defs4" />
  <sodipodi:namedview
     id="namedview4"
     pagecolor="#ffffff"
     bordercolor="#000000"
     borderopacity="0.25"
     inkscape:showpageshadow="2"
     inkscape:pageopacity="0.0"
     inkscape:pagecheckerboard="0"
     inkscape:deskcolor="#d1d1d1"
     inkscape:zoom="4.6485002"
     inkscape:cx="2.6890393"
     inkscape:cy="11.831773"
     inkscape:window-width="960"
     inkscape:window-height="512"
     inkscape:window-x="0"
     inkscape:window-y="27"
     inkscape:window-maximized="1"
     inkscape:current-layer="svg4" />
  <g
     fill="#00bcff"
     transform="scale(0.78813559,0.81355932)"
     id="g4">
    <path
       d="m 18,0 v 11.2 c 0,2.6 2.1,4.8 4.8,4.8 H 34 C 26.4,13.6 20.4,7.6 18,0 Z"
       id="path1" />
    <path
       d="M 18,34 V 22.5 C 18,20 20,18 22.5,18 H 34 c -7.6,2.4 -13.6,8.4 -16,16 z"
       id="path2" />
    <path
       d="M 16,0 V 11.5 C 16,14 14,16 11.5,16 H 0 C 7.6,13.6 13.6,7.6 16,0 Z"
       id="path3" />
    <path
       d="M 16,34 V 22.5 C 16,20 14,18 11.5,18 H 0 c 7.6,2.4 13.6,8.4 16,16 z"
       id="path4" />
  </g>
</svg>
